<svg id="Layer_1" data-name="Layer 1" xmlns="http://www.w3.org/2000/svg" xmlns:xlink="http://www.w3.org/1999/xlink" viewBox="0 0 105.72 16.29"><defs><style>.cls-1,.cls-9{font-size:12px;}.cls-1,.cls-7,.cls-9{fill:#231f20;}.cls-1{font-family:Raleway-Bold, Raleway;font-weight:700;}.cls-2{letter-spacing:-0.01em;}.cls-3{letter-spacing:-0.03em;}.cls-4{letter-spacing:-0.02em;}.cls-5{letter-spacing:0em;}.cls-6{letter-spacing:-0.01em;}.cls-8{fill:url(#linear-gradient);}.cls-9{font-family:BrandonGrotesque-Black, Brandon Grotesque;font-weight:800;}.cls-10{fill:none;stroke-miterlimit:10;stroke-width:0.5px;stroke:url(#Fading_Sky);}</style><linearGradient id="linear-gradient" x1="30.83" y1="9.99" x2="50.92" y2="9.99" gradientTransform="translate(5.43 -3.46) rotate(-1.71)" gradientUnits="userSpaceOnUse"><stop offset="0" stop-color="#fff"/><stop offset="1"/></linearGradient><linearGradient id="Fading_Sky" x1="33.68" y1="9.99" x2="53.76" y2="9.99" gradientTransform="translate(5.43 -3.46) rotate(-1.71)" gradientUnits="userSpaceOnUse"><stop offset="0" stop-color="#2484c6"/><stop offset="1" stop-color="#2484c6" stop-opacity="0"/></linearGradient></defs><title>logo-CS</title><text class="cls-1" transform="translate(0 11.07)">Cas<tspan class="cls-2" x="21.08" y="0">e</tspan><tspan class="cls-3" x="28.1" y="0">y</tspan><tspan x="34.38" y="0" xml:space="preserve">           S</tspan><tspan class="cls-4" x="73.41" y="0">e</tspan><tspan class="cls-5" x="80.37" y="0">x</tspan><tspan class="cls-6" x="86.75" y="0">t</tspan><tspan x="91.2" y="0">on</tspan></text><path class="cls-7" d="M56.77,2.34a4.29,4.29,0,0,0-6.1,0,4.1,4.1,0,0,0-1.21,2.41l1.85.08h0A2.55,2.55,0,0,1,52,3.73a2.37,2.37,0,0,1,3.39.08,2.4,2.4,0,0,1,.06,3.41,2.47,2.47,0,0,1-1.59.7.21.21,0,0,0-.21.21l0,1.35a.22.22,0,0,0,.24.23,4,4,0,0,0,2.85-1.24A4.33,4.33,0,0,0,56.77,2.34Z" transform="translate(0.35 0.99)"/><path class="cls-8" d="M43.94,2.54a4,4,0,0,1,2.85-1.23.23.23,0,0,1,.25.23V2.89a.21.21,0,0,1-.21.21,2.51,2.51,0,0,0-1.59.69,2.4,2.4,0,0,0,0,3.41,2.37,2.37,0,0,0,3.39.1,2.51,2.51,0,0,0,.75-1.53.25.25,0,0,1,.24-.21L51,5.62a.24.24,0,0,1,.22.24A4.08,4.08,0,0,1,50,8.72a4.31,4.31,0,1,1-6-6.18Z" transform="translate(0.35 0.99)"/><text class="cls-9" transform="translate(46.82 12.94) rotate(-44.26)">C</text><path class="cls-10" d="M43.94,2.54a4,4,0,0,1,2.85-1.23.23.23,0,0,1,.25.23V2.89a.21.21,0,0,1-.21.21,2.51,2.51,0,0,0-1.59.69,2.4,2.4,0,0,0,0,3.41,2.37,2.37,0,0,0,3.39.1,2.51,2.51,0,0,0,.75-1.53.25.25,0,0,1,.24-.21L51,5.62a.24.24,0,0,1,.22.24A4.08,4.08,0,0,1,50,8.72a4.31,4.31,0,1,1-6-6.18Z" transform="translate(0.35 0.99)"/></svg>